<?xml version="1.0" encoding="UTF-8" standalone="no"?>
<!-- Created with Inkscape (http://www.inkscape.org/) -->

<svg
   width="120"
   height="22"
   viewBox="0 0 207.556 38.367001"
   version="1.1"
   id="svg5"
   xml:space="preserve"
   inkscape:version="1.2 (1:1.2.1+202207142221+cd75a1ee6d)"
   sodipodi:docname="fastapi_logo.svg"
   xmlns:inkscape="http://www.inkscape.org/namespaces/inkscape"
   xmlns:sodipodi="http://sodipodi.sourceforge.net/DTD/sodipodi-0.dtd"
   xmlns="http://www.w3.org/2000/svg"
   xmlns:svg="http://www.w3.org/2000/svg"><sodipodi:namedview
     id="namedview7"
     pagecolor="#ffffff"
     bordercolor="#cccccc"
     borderopacity="1"
     inkscape:showpageshadow="0"
     inkscape:pageopacity="1"
     inkscape:pagecheckerboard="0"
     inkscape:deskcolor="#d1d1d1"
     inkscape:document-units="mm"
     showgrid="false"
     inkscape:zoom="0.96717228"
     inkscape:cx="519.03886"
     inkscape:cy="207.30536"
     inkscape:window-width="1920"
     inkscape:window-height="981"
     inkscape:window-x="0"
     inkscape:window-y="0"
     inkscape:window-maximized="1"
     inkscape:current-layer="layer1" /><defs
     id="defs2"><rect
       x="74.741394"
       y="-84.892822"
       width="820.74768"
       height="287.48309"
       id="rect235" /></defs><g
     inkscape:label="Layer 1"
     inkscape:groupmode="layer"
     id="layer1"><path
       style="fill:#06988a;stroke:none;stroke-width:0.264583"
       d="M 17.056,0.13110269 C 12.652275,0.98756269 8.3096691,2.4120827 5.1497505,5.8638327 -3.4116376,15.215533 -1.061873,30.583323 10.441417,36.335103 c 1.841235,0.92048 3.767666,1.57983 5.820833,1.8079 2.239434,0.24871 4.378325,0.37782 6.614584,-0.0881 9.373129,-1.95289 16.285634,-10.88178 15.345834,-20.54939 C 37.381822,8.8578727 30.557953,1.2786127 21.8185,0.30759269 c -1.565804,-0.17409 -3.173148,-0.48551 -4.7625,-0.17648 M 173.95393,2.9534227 V 35.761763 h 4.49791 v -12.43542 c 5.04137,0 11.09028,0.51673 15.34584,-2.73394 5.38294,-4.11215 3.92932,-13.3508703 -1.5875,-16.4925403 -5.53006,-3.14907001 -12.35552,-1.61237 -18.25625,-1.14644 M 53.568501,2.6888327 V 35.761753 h 4.497917 v -15.34584 h 13.758334 v -3.96875 H 58.066418 V 9.5680027 l 0.132292,-2.64584 3.836458,-0.52916 h 11.377084 v -3.70417 H 53.568501 m 84.931259,33.0729203 4.71831,-0.13229 0.83794,-1.98438 1.5875,-4.49792 0.83793,-1.71979 4.18915,-0.13229 h 10.84792 l 2.07248,6.35 0.88212,1.98438 4.71832,0.13229 -3.0869,-8.99584 -7.27604,-18.2562503 -1.76371,-3.96875 -0.92604,-1.71979 -4.10105,-0.0881 -1.41128,2.33706 -2.68976,6.0854203 -6.35,16.13958 -3.08689,8.46667 M 202.79351,2.6888327 v 24.0770803 6.35 l 0.13229,2.33707 4.10104,0.26458 0.52917,-2.07248 V 27.824253 2.6888327 h -4.7625 m -65.61667,32.2791703 -0.79375,-3.70417 c -2.35373,0.43365 -4.41881,1.66238 -6.87917,0.70564 -1.72852,-0.6723 -2.34817,-2.48496 -2.60164,-4.14522 -0.64268,-4.20635 -0.0442,-8.96753 -0.0442,-13.22917 h 6.87917 l 2.51354,-0.30877 0.13229,-3.3954 h -9.525 V 3.2180027 c -0.90143,0 -4.12776,0.15451 -4.45373,1.05833 -0.33523,0.92895 -0.0442,2.45189 -0.0442,3.43958 v 8.2020903 c 0,4.14972 -0.13467,8.32882 0.26459,12.43541 0.30533,3.14034 1.14564,6.15606 4.49791,7.32023 1.11946,0.38867 2.79109,0.61727 3.96875,0.61727 2.06746,0 4.13174,-0.7059 6.08542,-1.32291 M 21.02475,4.0117527 V 15.918003 h 6.350001 l -8.995834,18.25625 H 18.114334 V 22.532583 H 11.49975 l 2.866231,-5.82083 3.704167,-7.4083403 2.954602,-5.29166 M 178.45184,19.357583 V 6.3930027 c 3.37582,0 7.43374,-0.73687 10.58334,0.83793 3.88329,1.94152 4.54765,8.2304003 0.79375,10.7156303 -3.17077,2.09867 -7.75203,1.41102 -11.37709,1.41102 m -24.60625,-11.3770803 3.26311,7.6729103 2.82231,7.67292 h -12.17084 l 3.88065,-10.58333 2.20477,-4.7625003 m -76.464588,3.1750003 0.529167,3.70416 c 3.803915,-0.70061 10.224823,-2.40453 11.553561,2.91042 0.286808,1.14803 0.352689,2.26166 0.352689,3.43958 -3.708929,-0.68315 -8.227748,-1.15702 -11.641667,0.88186 -4.292864,2.56381 -4.764881,9.58215 -0.529166,12.52379 1.591998,1.10543 3.440641,1.2311 5.291667,1.41102 3.61606,0.35163 7.510462,-0.13017 11.112504,-0.79375 v -15.34583 c 0,-2.95487 -0.54293,-6.28624 -3.175004,-8.11398 -1.750748,-1.21576 -4.274344,-1.56025 -6.35,-1.67561 -2.319603,-0.1288503 -4.865688,0.63871 -7.143751,1.05834 m 23.018758,19.84375 -0.79375,3.96875 c 1.17236,0.2159 2.2725,0.72707 3.43958,0.97022 3.26125,0.67945 7.22207,0.53949 10.31875,-0.79375 3.65839,-1.57533 4.9485,-6.77836 2.55773,-9.96606 -1.83118,-2.44157 -5.14324,-3.31972 -7.8494,-4.40981 -1.48457,-0.59795 -3.10488,-1.32609 -3.61606,-2.99852 -0.53948,-1.76636 0.81889,-2.91042 2.29315,-3.48377 2.60059,-1.01124 5.71579,-0.078 8.20208,0.83794 l 0.79375,-3.70417 c -1.76689,-0.88344 -3.64305,-0.87233 -5.55625,-1.05833 -4.59952,-0.4471503 -10.24149,1.31021 -10.31875,6.87916 -0.0111,0.80196 0.0889,1.62111 0.35269,2.38125 1.85949,5.35491 9.15802,4.12142 11.99462,8.46667 1.19592,1.83198 -0.51356,3.72507 -2.29314,4.14523 -3.28719,0.77602 -6.45425,-0.10345 -9.525,-1.23481 m -16.668757,-6.83498 c 1.458383,-0.22278 3.065198,-0.0624 4.497916,0.17621 0.452967,0.0757 1.133211,-0.0233 1.455209,0.39687 0.306387,0.40005 0.132291,1.29382 0.132291,1.76398 v 4.23333 c 0,0.57865 0.134673,1.30387 -0.529166,1.54332 -0.552715,0.19949 -1.274498,-0.0119 -1.852084,0.0442 -2.123281,0.20638 -5.446977,0.63844 -7.14375,-1.05833 -1.258887,-1.25889 -1.559983,-3.83699 -0.44106,-5.29167 0.856191,-1.11283 2.558256,-1.60602 3.880644,-1.80789 z"
       id="path125" /></g></svg>
